<?xml version="1.0" encoding="UTF-8" standalone="no"?>
<!-- Created with Inkscape (http://www.inkscape.org/) -->

<svg
   xmlns:dc="http://purl.org/dc/elements/1.1/"
   xmlns:cc="http://creativecommons.org/ns#"
   xmlns:rdf="http://www.w3.org/1999/02/22-rdf-syntax-ns#"
   xmlns:svg="http://www.w3.org/2000/svg"
   xmlns="http://www.w3.org/2000/svg"
   xmlns:sodipodi="http://sodipodi.sourceforge.net/DTD/sodipodi-0.dtd"
   xmlns:inkscape="http://www.inkscape.org/namespaces/inkscape"
   id="svg2"
   sodipodi:version="0.32"
   inkscape:version="0.48.2 r9819"
   width="577.50824"
   height="575.94238"
   xml:space="preserve"
   sodipodi:docname="village house.svg"
   inkscape:output_extension="org.inkscape.output.svg.inkscape"
   version="1.0"
   style="display:inline"><metadata
     id="metadata7"><rdf:RDF><cc:Work
         rdf:about=""><dc:format>image/svg+xml</dc:format><dc:type
           rdf:resource="http://purl.org/dc/dcmitype/StillImage" /></cc:Work></rdf:RDF></metadata><defs
     id="defs5"><inkscape:perspective
       sodipodi:type="inkscape:persp3d"
       inkscape:vp_x="147.82079 : 668.72792 : 1"
       inkscape:vp_y="6.123234e-14 : 1000 : 0"
       inkscape:vp_z="891.91527 : 668.72792 : 1"
       inkscape:persp3d-origin="519.86803 : 493.33422 : 1"
       id="perspective9" /></defs><sodipodi:namedview
     inkscape:window-height="856"
     inkscape:window-width="1440"
     inkscape:pageshadow="2"
     inkscape:pageopacity="0.0"
     guidetolerance="10"
     gridtolerance="10"
     objecttolerance="10"
     borderopacity="1.0"
     bordercolor="#666666"
     pagecolor="#ffffff"
     id="base"
     showgrid="false"
     inkscape:zoom="0.68400915"
     inkscape:cx="174.31866"
     inkscape:cy="195.86858"
     inkscape:window-x="0"
     inkscape:window-y="0"
     inkscape:current-layer="g11"
     inkscape:snap-bbox="true"
     inkscape:object-paths="true"
     inkscape:object-nodes="true"
     inkscape:bbox-paths="true"
     inkscape:bbox-nodes="true"
     inkscape:document-units="mm"
     units="mm"
     width="215.9mm"
     showguides="true"
     inkscape:guide-bbox="true"
     inkscape:window-maximized="0"
     fit-margin-top="0"
     fit-margin-left="0"
     fit-margin-right="0"
     fit-margin-bottom="0" /><g
     id="g11"
     inkscape:groupmode="layer"
     inkscape:label="huizen"
     transform="matrix(1.25,0,0,-1.25,-163.14204,346.80665)"
     style="display:inline"><g
       id="g3051"><path
         sodipodi:nodetypes="ccccc"
         id="path2448"
         d="m 439.85302,247.06116 19.52235,5.24263 c -0.01,0.0713 -0.75648,17.26545 -0.80066,17.28568 l -19.40555,-1.77835 0.68386,-20.74996 z"
         style="fill:#858585;fill-opacity:1;fill-rule:evenodd;stroke:none"
         inkscape:connector-curvature="0" /><path
         inkscape:connector-curvature="0"
         sodipodi:nodetypes="cccccccc"
         id="path2410"
         transform="matrix(0.8,0,0,-0.8,86.895448,539.42473)"
         d="m 193.28799,336.38046 0.78064,24.16216 126.90012,198.36363 22.6875,0.6875 -133.30547,-204.62223 -0.0312,0 0.1875,-17.84375 z"
         style="fill:#858585;fill-opacity:1;fill-rule:evenodd;stroke:none" /><path
         inkscape:connector-curvature="0"
         sodipodi:nodetypes="ccccc"
         id="path2412"
         d="m 458.87821,253.93416 11.51215,-0.70298 122.12984,-159.987318 -15.66568,-3e-6 z"
         style="fill:#6e6e6e;fill-opacity:1;fill-rule:evenodd;stroke:none" /><path
         inkscape:connector-curvature="0"
         sodipodi:nodetypes="ccccc"
         id="path2414"
         d="M 576.85452,93.864842 459.42007,253.21988 c -1.36775,4.09542 -8.80485,-2.23645 -14.06134,-2.27986 L 576.90452,76.868124 z"
         style="fill:#858585;fill-opacity:1;fill-rule:evenodd;stroke:none" /><path
         inkscape:connector-curvature="0"
         sodipodi:nodetypes="ccccccccc"
         id="path2420"
         d="m 130.51363,107.11946 94.4148,139.61429 0.62546,23.06244 15.97195,0.52417 0.62451,-19.32973 101.50884,-158.4894 -0.003,-275.8098 c 0,0 -214.23684,10.5724 -211.77287,11.5165 z"
         style="fill:#7e6339;fill-opacity:1;fill-rule:evenodd;stroke:none" /><path
         inkscape:connector-curvature="0"
         sodipodi:nodetypes="ccccccccc"
         id="path2422"
         d="m 343.6564,92.780399 15.26524,-0.346784 2.69106,-30.69989 214.97618,-0.624465 0.26564,32.134599 15.66568,3e-6 0,-259.799262 -248.8638,-16.75317 z"
         style="fill:#be9f70;fill-opacity:1;fill-rule:evenodd;stroke:none" /><path
         id="path3081"
         d="m 549.59545,-88.70027 -65.275,-2.675 c 0,0 4e-5,-0.11896 0,-0.125 l -0.025,-4.75 -0.375,-74.275 4.85,0.075 0,0.15 62.15,3.025 -1.325,78.575 z"
         style="fill:#f6ddcd;fill-opacity:1;fill-rule:evenodd;stroke:none;display:inline"
         inkscape:connector-curvature="0" /><path
         inkscape:connector-curvature="0"
         sodipodi:nodetypes="cccccc"
         id="path2426"
         d="m 257.22919,252.296 188.50723,-1.39758 131.1681,-174.030296 -217.58239,2.818779 -0.40049,12.746712 z"
         style="fill:#463f44;fill-opacity:1;fill-rule:evenodd;stroke:none" /><path
         sodipodi:nodetypes="ccccc"
         id="path2428"
         d="m 368.93552,184.62098 21.5151,22.43423 66.08189,10.7513 -32.32602,-22.36907 -55.27097,-10.81646 z"
         style="fill:#302a29;fill-opacity:1;fill-rule:evenodd;stroke:none"
         inkscape:connector-curvature="0" /><path
         sodipodi:nodetypes="cccccccccc"
         id="path2430"
         d="m 369.6552,184.49953 0.31993,-6.7013 57.2674,11.40362 29.11359,19.48463 27.83386,-23.45485 4.59963,-0.38365 2.10137,1.64988 -34.85481,31.12943 -31.03315,-21.18771 -55.34782,-11.94005 z"
         style="fill:#ebe3d9;fill-opacity:1;fill-rule:evenodd;stroke:none"
         inkscape:connector-curvature="0" /><path
         sodipodi:nodetypes="ccccc"
         id="path2409"
         d="m 419.42415,112.22745 4.43625,0.50798 -0.19988,75.99838 -48.4784,-9.89874 44.24203,-66.60762 z"
         style="fill:#d2b996;fill-opacity:1;fill-rule:evenodd;stroke:none"
         inkscape:connector-curvature="0" /><path
         id="path2411"
         d="m 423.49906,188.56365 3.39065,0.5056 28.90132,20.12502 27.44815,-23.22449 -1.6146,-75.97311 -57.64115,2.70695 -0.48437,75.86003 z"
         style="fill:#ebe3d9;fill-opacity:1;fill-rule:evenodd;stroke:none"
         inkscape:connector-curvature="0" /><path
         inkscape:connector-curvature="0"
         sodipodi:nodetypes="ccccc"
         id="path2413"
         d="m 433.13654,175.66702 -1.07235,-57.91514 41.78361,-1.31976 0,57.64115 -40.71126,1.59375 z"
         style="fill:#52402b;fill-opacity:1;fill-rule:evenodd;stroke:none" /><path
         inkscape:connector-curvature="0"
         sodipodi:nodetypes="ccccc"
         id="path2415"
         d="m 431.96221,154.92071 0.1964,-2.35865 41.68919,-2.11449 0.20338,2.77997 z"
         style="fill:#ebe3d9;fill-opacity:1;fill-rule:evenodd;stroke:none" /><path
         inkscape:connector-curvature="0"
         sodipodi:nodetypes="ccccc"
         id="path2417"
         d="m 454.04904,175.24621 -0.33896,-22.24368 2.16935,0.11688 0.33896,21.64401 -2.16935,0.48279 z"
         style="fill:#ebe3d9;fill-opacity:1;fill-rule:evenodd;stroke:none" /><path
         sodipodi:nodetypes="ccccc"
         id="path3220"
         d="m 458.54986,270.46905 11.68958,-2.40726 0.21703,-14.91583 -11.32188,0.45024 -0.58473,16.87285 z"
         style="fill:#6e6e6e;fill-opacity:1;fill-rule:evenodd;stroke:none"
         inkscape:connector-curvature="0" /><path
         sodipodi:nodetypes="ccccccc"
         id="path3222"
         d="m 439.14551,274.10572 18.5932,2.64016 12.90618,-1.77577 -0.19697,-6.93505 -12.11294,1.55348 -19.16582,-1.77739 -0.0236,6.29457 z"
         style="fill:#252525;fill-opacity:1;fill-rule:evenodd;stroke:none"
         inkscape:connector-curvature="0" /><path
         inkscape:connector-curvature="0"
         sodipodi:nodetypes="ccccccc"
         style="fill:#252525;fill-opacity:1;fill-rule:evenodd;stroke:none"
         d="m 225.35694,276.15657 16.58836,1.28875 13.55297,-0.86839 -0.19716,-6.85442 -13.05567,0.2664 -16.69155,-0.19272 c -0.19695,6.36038 -0.0724,4.37337 -0.19695,6.36038 z"
         id="path3224" /><path
         sodipodi:nodetypes="ccccc"
         id="path3265"
         d="m 150.31155,-57.114199 63.75646,-2.710941 1.38416,-79.84198 -66.02024,3.59027 c 0,0 0.87962,78.962651 0.87962,78.962651 z"
         style="fill:#f6ddcd;fill-opacity:1;fill-rule:evenodd;stroke:none;display:inline"
         inkscape:connector-curvature="0" /><path
         inkscape:connector-curvature="0"
         sodipodi:nodetypes="ccccc"
         id="path3235"
         d="m 408.78496,-85.979379 1.75734,-93.010511 42.12303,3.14461 -0.342,91.89395 -43.53837,-2.028049 z"
         style="fill:#000000;fill-opacity:1;fill-rule:evenodd;stroke:none;display:inline" /><path
         inkscape:connector-curvature="0"
         sodipodi:nodetypes="ccccc"
         id="path3226"
         d="m 415.47398,-91.237029 1.33817,-87.459571 32.07576,2.55092 -0.26043,86.396205 -33.1535,-1.487554 z"
         style="fill:#761111;fill-opacity:1;fill-rule:evenodd;stroke:none;display:inline" /><path
         sodipodi:nodetypes="ccccc"
         id="path3204"
         d="m 384.94506,39.923379 -1.17272,-81.353075 62.84546,4.691176 -0.47143,73.686953 -61.20131,2.974946 z"
         style="fill:#000000;fill-opacity:1;fill-rule:evenodd;stroke:none;display:inline"
         inkscape:connector-curvature="0" /><path
         inkscape:connector-curvature="0"
         sodipodi:nodetypes="ccccc"
         id="path3198"
         d="m 384.32008,-16.094636 -0.0397,-3.557255 62.33739,1.746819 0.47238,3.866171 z"
         style="fill:#f6ddcd;fill-opacity:1;fill-rule:evenodd;stroke:none;display:inline" /><path
         inkscape:connector-curvature="0"
         sodipodi:nodetypes="ccccc"
         id="path3200"
         d="m 414.27841,39.832901 -0.77598,-77.35209 5.74396,-1.262484 0.81262,78.671709 z"
         style="fill:#f6ddcd;fill-opacity:1;fill-rule:evenodd;stroke:none;display:inline" /><path
         inkscape:connector-curvature="0"
         sodipodi:nodetypes="ccccccccc"
         id="path3202"
         d="m 379.43105,36.335862 c 4e-4,0.167908 0.0328,5.287586 0.0328,5.287586 l 70.46061,1.175764 1.41713,-85.424142 -72.82249,-1.775427 0.94475,6.191828 67.15397,1.470009 0,73.691048 z"
         style="fill:#f6ddcd;fill-opacity:1;fill-rule:evenodd;stroke:none;display:inline" /><path
         inkscape:connector-curvature="0"
         sodipodi:nodetypes="ccccc"
         id="path3206"
         d="m 379.45749,41.49505 -0.44017,-85.882445 4.98796,0.04667 0.89939,80.699069 z"
         style="fill:#f6ddcd;fill-opacity:1;fill-rule:evenodd;stroke:none;display:inline" /><g
         transform="matrix(2.1822968,0.1175781,0,-2.1344779,-108.66239,1079.1499)"
         id="g3218"
         style="display:inline"><path
           style="fill:#000000;fill-opacity:1;fill-rule:evenodd;stroke:none;display:inline"
           d="m 274.69139,502.28324 -0.77918,36.91364 28.96964,-0.60164 -0.21731,-33.97892 -27.97315,-2.33308 z"
           id="path3208"
           sodipodi:nodetypes="ccccc"
           inkscape:connector-curvature="0" /><path
           style="fill:#f6ddcd;fill-opacity:1;fill-rule:evenodd;stroke:none;display:inline"
           d="m 274.90224,527.57162 -0.0183,1.63879 27.99789,0.70324 0.21775,-1.77044 -28.19736,-0.57159 z"
           id="path3210"
           sodipodi:nodetypes="ccccc"
           inkscape:connector-curvature="0" /><path
           style="fill:#f6ddcd;fill-opacity:1;fill-rule:evenodd;stroke:none;display:inline"
           d="m 287.93681,503.38796 -0.17523,35.52128 2.78359,0.0844 0.0563,-35.4884 -2.66466,-0.11723 z"
           id="path3212"
           sodipodi:nodetypes="ccccc"
           inkscape:connector-curvature="0" /><path
           inkscape:connector-curvature="0"
           style="fill:#f6ddcd;fill-opacity:1;fill-rule:evenodd;stroke:none;display:inline"
           d="m 274.12366,503.36096 c 1.8e-4,-0.0774 -1.45123,-2.51735 -1.45123,-2.51735 l 32.46684,1.20992 -0.0799,39.37247 -31.35609,-0.871 0.4355,-2.83076 28.74308,0.871 0,-33.9691 z"
           id="path3214"
           sodipodi:nodetypes="ccccccccc" /><path
           inkscape:connector-curvature="0"
           style="fill:#f6ddcd;fill-opacity:1;fill-rule:evenodd;stroke:none;display:inline"
           d="m 272.6695,500.90264 -0.2029,39.57799 2.29053,0.10366 0.41459,-37.17722 z"
           id="path3216"
           sodipodi:nodetypes="ccccc" /></g><path
         sodipodi:nodetypes="ccccc"
         inkscape:connector-curvature="0"
         transform="matrix(0.8,0,0,-0.8,86.895448,539.42473)"
         id="path3067"
         d="M 572.4375,855.09375 541.53125,856.8125 541.375,878.30001 572.59375,876.75 z"
         style="fill:#000000;fill-opacity:1;fill-rule:evenodd;stroke:none;display:inline" /><path
         sodipodi:nodetypes="ccccc"
         inkscape:connector-curvature="0"
         transform="matrix(0.8,0,0,-0.8,86.895448,539.42473)"
         id="path3057"
         d="M 542.73098,792.97148 541.5625,852.5 572.40625,850.65625 572.03125,792 z"
         style="fill:#000000;fill-opacity:1;fill-rule:evenodd;stroke:none;display:inline" /><path
         id="path3097"
         d="m 515.17045,-95.17527 -26.6,-0.925 -1,-48.35 27.1,1.525 0.5,47.75 z"
         style="fill:#000000;fill-opacity:1;fill-rule:evenodd;stroke:none;display:inline"
         inkscape:connector-curvature="0" /><path
         id="path3102"
         d="m 514.64545,-146.32527 -27.15,-1.9 -0.35,-16.475 27.325,1.3 0.175,17.075 z"
         style="fill:#000000;fill-opacity:1;fill-rule:evenodd;stroke:none;display:inline"
         inkscape:connector-curvature="0" /><path
         inkscape:connector-curvature="0"
         id="path3237"
         d="m 421.1489,-96.307517 0.29867,-37.916293 20.01157,0.48084 -0.29866,37.916263 -20.01158,-0.48081 z"
         style="fill:#000000;fill-opacity:1;fill-rule:evenodd;stroke:none;display:inline" /><path
         sodipodi:nodetypes="ccccc"
         inkscape:connector-curvature="0"
         id="path3239"
         d="m 359.32213,79.686903 0,-8.960414 220.73792,-0.06093 0,8.960414 z"
         style="fill:#dfceb0;fill-opacity:1;fill-rule:evenodd;stroke:none;display:inline" /><path
         inkscape:connector-curvature="0"
         sodipodi:nodetypes="ccccc"
         id="path3241"
         d="m 359.32213,70.726489 0.86981,-4.012277 213.18498,0.0167 -0.24853,4.15559 z"
         style="fill:#90816a;fill-opacity:1;fill-rule:evenodd;stroke:none;display:inline" /><path
         inkscape:connector-curvature="0"
         sodipodi:nodetypes="ccccc"
         id="path3243"
         d="m 360.19194,66.714212 -0.86981,-6.16791 212.89822,0.712299 1.15657,5.472307 z"
         style="fill:#dfceb0;fill-opacity:1;fill-rule:evenodd;stroke:none;display:inline" /><path
         inkscape:connector-curvature="0"
         sodipodi:nodetypes="cccccc"
         id="path3245"
         d="m 580.06005,70.665557 c -1.48252,0.04726 -6.93166,0.220945 -6.93166,0.220945 l 0.24856,-4.155573 -1.10503,-5.473774 4.31696,-0.147895 3.47117,9.556297 z"
         style="fill:#7e6339;fill-opacity:1;fill-rule:evenodd;stroke:none;display:inline" /><path
         sodipodi:nodetypes="ccccccccc"
         id="path3247"
         d="m 423.59812,188.7206 c 0,0 -0.5197,-2.67649 0.0709,-3.23535 l 6.5787,0.0501 26.15072,17.84229 26.78199,-20.17074 1.35506,2.105 -28.7445,23.88235 -27.61194,-19.22718 -4.58097,-1.24649 z"
         style="fill:#afa28d;fill-opacity:1;fill-rule:evenodd;stroke:none;display:inline"
         inkscape:connector-curvature="0" /><path
         sodipodi:nodetypes="ccccc"
         id="path3259"
         d="m 154.39186,-62.919094 -1.16849,-68.377776 57.87834,-1.4022 -1.92945,67.537627 -54.7804,2.242349 z"
         style="fill:#000000;fill-opacity:1;fill-rule:evenodd;stroke:none;display:inline"
         inkscape:connector-curvature="0" /><path
         sodipodi:nodetypes="ccccc"
         id="path3261"
         d="m 153.37718,-108.18448 -0.0366,-3.26981 57.76109,-3.91405 0.43504,3.51467 -58.15957,3.66919 z"
         style="fill:#f6ddcd;fill-opacity:1;fill-rule:evenodd;stroke:none;display:inline"
         inkscape:connector-curvature="0" /><path
         sodipodi:nodetypes="ccccc"
         id="path3263"
         d="m 181.31834,-62.239073 -0.94085,-69.715637 5.5613,-0.41851 0.70325,69.660673 -5.3237,0.473474 z"
         style="fill:#f6ddcd;fill-opacity:1;fill-rule:evenodd;stroke:none;display:inline"
         inkscape:connector-curvature="0" /><path
         style="fill:#f6ddcd;fill-opacity:1;fill-rule:evenodd;stroke:none;display:inline"
         d="m 153.37718,-108.18448 -0.0366,-3.26981 57.76109,-3.91405 0.43504,3.51467 -58.15957,3.66919 z"
         id="path2457"
         sodipodi:nodetypes="ccccc"
         inkscape:connector-curvature="0" /><path
         sodipodi:nodetypes="ccccc"
         id="path2461"
         d="m 252.44965,-62.337527 63.75649,-2.779312 1.38413,-79.843461 -66.02024,3.66107 c 0,0 0.87962,78.961703 0.87962,78.961703 z"
         style="fill:#f6ddcd;fill-opacity:1;fill-rule:evenodd;stroke:none;display:inline"
         inkscape:connector-curvature="0" /><path
         inkscape:connector-curvature="0"
         sodipodi:nodetypes="ccccc"
         id="path2463"
         d="m 256.71269,-67.438151 0.0661,-67.667899 54.33512,-4.2988 0.19648,68.95696 z"
         style="fill:#000000;fill-opacity:1;fill-rule:evenodd;stroke:none;display:inline" /><path
         sodipodi:nodetypes="ccccc"
         id="path2465"
         d="m 255.51528,-113.41109 -0.0366,-3.26978 57.76109,-3.97598 0.43504,3.51423 -58.15957,3.73153 z"
         style="fill:#f6ddcd;fill-opacity:1;fill-rule:evenodd;stroke:none;display:inline"
         inkscape:connector-curvature="0" /><path
         sodipodi:nodetypes="ccccc"
         id="path2467"
         d="m 283.45644,-67.495652 -0.94085,-69.714618 5.5613,-0.42446 0.70325,69.659896 -5.3237,0.479182 z"
         style="fill:#f6ddcd;fill-opacity:1;fill-rule:evenodd;stroke:none;display:inline"
         inkscape:connector-curvature="0" /><path
         style="fill:#f6ddcd;fill-opacity:1;fill-rule:evenodd;stroke:none;display:inline"
         d="m 155.12977,47.607389 63.75646,-2.71094 1.38413,-79.841981 -66.02024,3.590278 c 0,0 0.87965,78.962643 0.87965,78.962643 z"
         id="path2469"
         sodipodi:nodetypes="ccccc"
         inkscape:connector-curvature="0" /><path
         style="fill:#000000;fill-opacity:1;fill-rule:evenodd;stroke:none;display:inline"
         d="m 159.21006,41.802495 -1.1685,-68.377786 57.87835,-1.402194 -1.92946,67.537631 -54.78039,2.242349 z"
         id="path2471"
         sodipodi:nodetypes="ccccc"
         inkscape:connector-curvature="0" /><path
         style="fill:#f6ddcd;fill-opacity:1;fill-rule:evenodd;stroke:none;display:inline"
         d="m 158.19537,-3.462888 -0.0365,-3.2698141 57.76107,-3.9140469 0.43503,3.5146735 -58.15957,3.6691875 z"
         id="path2473"
         sodipodi:nodetypes="ccccc"
         inkscape:connector-curvature="0" /><path
         style="fill:#f6ddcd;fill-opacity:1;fill-rule:evenodd;stroke:none;display:inline"
         d="m 186.13653,42.482515 -0.94085,-69.715625 5.5613,-0.418515 0.70326,69.660666 -5.32371,0.473474 z"
         id="path2475"
         sodipodi:nodetypes="ccccc"
         inkscape:connector-curvature="0" /><path
         sodipodi:nodetypes="ccccc"
         id="path2477"
         d="m 158.19537,-3.462888 -0.0365,-3.2698141 57.76107,-3.9140469 0.43503,3.5146735 -58.15957,3.6691875 z"
         style="fill:#f6ddcd;fill-opacity:1;fill-rule:evenodd;stroke:none;display:inline"
         inkscape:connector-curvature="0" /><path
         inkscape:connector-curvature="0"
         style="fill:#f6ddcd;fill-opacity:1;fill-rule:evenodd;stroke:none;display:inline"
         d="m 253.90269,42.724448 64.4651,-2.070667 1.38413,-82.678042 -66.72888,4.369722 z"
         id="path2479"
         sodipodi:nodetypes="ccccc" /><path
         inkscape:connector-curvature="0"
         style="fill:#000000;fill-opacity:1;fill-rule:evenodd;stroke:none;display:inline"
         d="m 257.98297,36.915179 -1.14856,-69.9453 56.98926,-2.591763 -1.0603,70.235968 z"
         id="path2481"
         sodipodi:nodetypes="ccccc" /><path
         style="fill:#f6ddcd;fill-opacity:1;fill-rule:evenodd;stroke:none;display:inline"
         d="m 256.96828,-8.3491157 -0.0365,-3.2698023 57.76106,-3.975961 0.43504,3.514206 -58.15958,3.7315573 z"
         id="path2483"
         sodipodi:nodetypes="ccccc"
         inkscape:connector-curvature="0" /><path
         inkscape:connector-curvature="0"
         style="fill:#f6ddcd;fill-opacity:1;fill-rule:evenodd;stroke:none;display:inline"
         d="m 284.90945,37.566324 -1.01094,-71.819473 5.5613,-0.424479 0.77334,71.764769 z"
         id="path2485"
         sodipodi:nodetypes="ccccc" /><g
         transform="matrix(1,-0.04153674,0,1,49.368821,141.55337)"
         id="g2454"><path
           inkscape:connector-curvature="0"
           style="fill:#f6ddcd;fill-opacity:1;fill-rule:evenodd;stroke:none;display:inline"
           d="m 155.12977,44.321507 65.17375,0.70481 -0.0332,-80.552003 -66.02024,0.848013 z"
           id="path2443"
           sodipodi:nodetypes="ccccc" /><path
           inkscape:connector-curvature="0"
           style="fill:#000000;fill-opacity:1;fill-rule:evenodd;stroke:none;display:inline"
           d="m 159.21006,38.686095 -1.1685,-68.426321 56.81725,-0.562756 -0.86836,69.022127 z"
           id="path2445"
           sodipodi:nodetypes="ccccc" /><path
           inkscape:connector-curvature="0"
           style="fill:#f6ddcd;fill-opacity:1;fill-rule:evenodd;stroke:none;display:inline"
           d="m 158.19537,-6.6214345 -0.0365,-3.2713315 57.76107,-1.51484 0.43503,3.5327429 -58.15957,1.2534286 z"
           id="path2447"
           sodipodi:nodetypes="ccccc" /><path
           inkscape:connector-curvature="0"
           style="fill:#f6ddcd;fill-opacity:1;fill-rule:evenodd;stroke:none;display:inline"
           d="m 186.13653,40.484553 -0.97197,-70.36099 5.5613,-0.187516 0.73438,70.296162 z"
           id="path2450"
           sodipodi:nodetypes="ccccc" /><path
           inkscape:connector-curvature="0"
           sodipodi:nodetypes="ccccc"
           id="path2452"
           d="m 158.19537,-6.6214345 -0.0365,-3.2713315 57.76107,-1.51484 0.43503,3.5327429 -58.15957,1.2534286 z"
           style="fill:#f6ddcd;fill-opacity:1;fill-rule:evenodd;stroke:none;display:inline" /></g></g></g></svg>